<?xml version="1.0" encoding="UTF-8" standalone="no"?>
<svg
   width="120"
   height="61"
   viewBox="0 0 120 61"
   fill="none"
   version="1.1"
   id="svg10"
   sodipodi:docname="no-post.svg"
   inkscape:version="1.2.2 (b0a8486541, 2022-12-01)"
   xmlns:inkscape="http://www.inkscape.org/namespaces/inkscape"
   xmlns:sodipodi="http://sodipodi.sourceforge.net/DTD/sodipodi-0.dtd"
   xmlns="http://www.w3.org/2000/svg"
   xmlns:svg="http://www.w3.org/2000/svg">
  <defs
     id="defs14" />
  <sodipodi:namedview
     id="namedview12"
     pagecolor="#ffffff"
     bordercolor="#000000"
     borderopacity="0.25"
     inkscape:showpageshadow="2"
     inkscape:pageopacity="0.0"
     inkscape:pagecheckerboard="0"
     inkscape:deskcolor="#d1d1d1"
     showgrid="true"
     inkscape:lockguides="false"
     inkscape:zoom="5.7381529"
     inkscape:cx="59.949605"
     inkscape:cy="60.73383"
     inkscape:window-width="1920"
     inkscape:window-height="1000"
     inkscape:window-x="0"
     inkscape:window-y="0"
     inkscape:window-maximized="1"
     inkscape:current-layer="svg10">
    <inkscape:grid
       type="xygrid"
       id="grid852" />
  </sodipodi:namedview>
  <path
     d="m 2.1014318,60.670348 c 5.11,0 11.8800002,-2.638774 15.1900002,-8.232581 0.2052,-0.317051 0.3889,-0.647239 0.55,-0.988306 0.7992,-1.764419 1.2278,-3.670762 1.26,-5.603686 h 39 l 7e-4,14.02118 c 17.5083,-6.155161 18.9993,-30.822366 18.9993,-30.822366 h 10 V 20.14984 h 6 l 0.18,10.031295 c -0.0672,5.163797 1.3175,10.244574 4,14.676334 0.08,0.12848 0.15,0.256961 0.23,0.375555 0.08,0.118594 0.26,0.415087 0.4,0.612751 l 0.29,0.415087 c 7.439998,10.703343 20.569998,14.409486 20.569998,14.409486 z"
     fill="#c2e2ff"
     id="path2"
     style="stroke-width:0.994132" />
  <path
     d="m 61.681432,55.03701 c 2.9039,-0.06099 5.3804,1.93026 5.9861,4.645132 l 52.433898,-10e-5 v 0.988306 H 0.10143181 v -0.988306 l 3.06355999,-3.93e-4 c 6.06139,-3.198257 11.9732402,-3.198257 14.2674402,0 l 37.2894,0.0011 c 1.1859,-2.731281 3.8894,-4.575455 6.9596,-4.645725 z m -36.58,-4.24971 v 0.988306 h -7.41 l 0.45,-0.988306 z m 64,-0.988307 V 50.7873 h -8 v -0.988307 z m 8.22,-4.941524 c 0.08,0.12848 0.15,0.256961 0.23,0.375555 0.08,0.118594 0.26,0.415087 0.4,0.612751 h -11.85 v -0.988306 z"
     fill="#1d2c52"
     id="path4"
     style="stroke-width:0.994132" />
  <path
     d="m 43.301432,21.177677 c 2.4687,0 4.47,1.977899 4.47,4.417723 v 16.445396 h 0.04 c 2.5973,0 4.7045,-2.078005 4.71,-4.645032 v -9.537145 c -0.1656,-1.148211 0.3616,-2.286442 1.3491,-2.91313 0.9876,-0.62668 2.2542,-0.62668 3.2417,0 0.9876,0.626688 1.5147,1.764919 1.3492,2.91313 v 9.537145 c -0.0027,2.799372 -1.1324,5.482521 -3.1399,7.457255 -2.0052,1.972462 -4.7213,3.076098 -7.5501,3.06829 v 12.749039 h -8.94 V 47.921216 l -0.5,9.3e-5 c -5.8773,-0.01096 -10.639,-4.71698 -10.65,-10.525545 v -3.073626 c 0,-1.637425 1.3431,-2.964919 3,-2.964919 1.6568,0 3,1.327494 3,2.964919 v 3.073626 c 0.0055,2.563169 2.1065,4.639596 4.7,4.645032 h 0.45 V 25.5954 c 0,-2.439824 2.0013,-4.417723 4.47,-4.417723 z"
     fill="#116dff"
     id="path6"
     style="stroke-width:0.994132" />
  <path
     d="m 23.501432,18.538903 c 4.9926,0 9.04,-3.999964 9.04,-8.9342744 0,-4.934215 -4.0474,-8.93428072 -9.04,-8.93428072 -4.9927,0 -9.04,4.00006572 -9.04,8.93428072 0,4.9343104 4.0473,8.9342744 9.04,8.9342744 z"
     fill="#ffd527"
     id="path8"
     style="stroke-width:0.994132" />
</svg>
